<svg width="122" height="94" viewBox="0 0 122 94" fill="none" xmlns="http://www.w3.org/2000/svg">
<g id="animated">
<g id="Vector 20">
<path d="M75 69.5L75.5 17L83 21V71L85.8555 71.3225V17.8225L93.5 21V73.5H85.8555C71.8363 71.634 58 73.5 58 73.5C58 73.5 47.7486 73.3013 42.3555 77C37.6179 74.0876 35.5557 72.0249 32.3555 68L32.3377 67.966C29.5065 62.5716 27.9136 59.5366 29.8555 52C31.9437 45.7543 33.8331 42.8422 38.8555 39C42.5091 36.2386 45.2155 34.8481 56.8555 34C62.0007 35.0288 71.4805 39 72.3556 42.5C73.2307 46 73.0957 53.0593 71.3555 58H58.8555L60.3555 55C60.3434 51.9193 60.0719 50.4424 58.8555 48.5C55.788 46.1519 54.2847 45.8517 51.8555 46.5C48.7415 47.2658 46.8759 48.108 43.8555 53C42.6707 57.5277 42.9009 59.6252 46.5 64.5C48.2657 66.6501 49.4237 67.4522 51.8555 68C64.5 65.5 66.1445 67 75 69.5Z" fill="white"/>
<path d="M75 69.5L75.5 17L83 21V71M75 69.5C66.1445 67 64.5 65.5 51.8555 68C49.4237 67.4522 48.2657 66.6501 46.5 64.5C42.9009 59.6252 42.6707 57.5277 43.8555 53C46.8759 48.108 48.7415 47.2658 51.8555 46.5C54.2847 45.8517 55.788 46.1519 58.8555 48.5C60.0719 50.4424 60.3434 51.9193 60.3555 55L58.8555 58H71.3555C73.0957 53.0593 73.2307 46 72.3556 42.5C71.4805 39 62.0007 35.0288 56.8555 34C45.2155 34.8481 42.5091 36.2386 38.8555 39C33.8331 42.8422 31.9437 45.7543 29.8555 52C27.9096 59.5524 29.5132 62.5843 32.3555 68C35.5557 72.0249 37.6179 74.0876 42.3555 77C47.7486 73.3013 58 73.5 58 73.5C58 73.5 71.8363 71.634 85.8555 73.5H93.5V21L85.8555 17.8225V71.3225L83 71M75 69.5L83 71" stroke="#4E98F2" stroke-width="0.5"/>
</g>
</g>
</svg>
